<svg class="kzmap" id="kzmap" viewBox="0 0 1447 681" role="group" aria-label="Қазақстан өңірлерінің картасы"><path class="rg" data-region="9" tabindex="0" role="button" aria-label="Батыс Қазақстан облысы, 12 нысан" transform="matrix(0.26458333,0,0,0.26458333,-158.22659,64.061583)" d="m 1187.3,456 17.6,-0.8 5.2,3.1 27.2,-3.8 3.8,4.7 8.5,1.6 c 1.3,4.1 0.5,11.5 -0.9,15.5 l -14.5,1.9 4.5,9.8 20.4,3.1 12,-5 6.3,-8.9 2.7,4.8 5.5,-0.1 2.5,3.5 -3.7,6 4.1,2.1 19.3,-9.6 -5.2,-12 13.5,-16.4 12.4,0.6 10.3,4.9 10.7,-0.8 7.1,-5.3 1.7,-5.9 11.7,0.3 8.9,-8.6 4.6,2.2 2.7,17.1 c 3.1,4.3 18.8,20.1 17.3,26.2 l 5.4,3 -0.5,4.9 6.9,-1.9 -0.2,3.1 4.3,0.3 -1.4,-2.5 3.9,0.6 1.6,-4.5 3.8,5.8 -1,-3.5 8.8,-1 -0.7,-3.9 3.2,1.4 1.1,-4.7 5.3,4.9 10.6,-0.9 -3.2,4.9 7.7,-4.1 3.4,6.7 3.3,-4.4 3.8,1.4 9.1,-4.3 11.4,1.7 -2.1,-6 6.2,-1.9 0.3,4.1 9.1,0.8 2.2,3.8 12.9,-4.8 15.8,13.1 10.7,1.9 7.5,7 -0.3,3.3 -3.8,0.5 3.6,3.8 -3,6.9 9.2,14 9.7,4.1 7.9,-1.8 5.5,3.9 6.1,-1.9 18.2,7 3.4,4.8 10.8,4.3 0.2,10.2 2.7,-2.4 3.8,4.7 -3.3,3.4 c 0.4,2.9 15.6,21.2 17.5,23.8 6.9,0.6 22.9,2.3 28.6,6.5 l -12,39.4 11.3,14.6 7.6,-2 2.1,2.5 -16.7,16.8 2.3,4.9 -14.2,12.6 10,11.7 -2,27 15.6,9.6 1.7,8.8 -5.5,15.3 -12.9,19 7.8,8 h -14.5 l -12,15.8 3.1,4.7 -13,6.4 -27.6,-1.4 -2.4,8.4 -13.9,-0.1 -9.9,8.2 -5.3,11.6 -8.2,-3.4 4.6,9 -8.7,24.9 1.2,15.9 v 0 l -29.7,23.7 3.4,6.8 -20.4,5.5 c -5.8,-0.1 -50.7,0.6 -55.2,-1 l -7.9,15.7 -11.9,-4.3 2.1,41.6 -16.1,0.6 -9.3,33.4 3,8.4 -9.4,4.9 -14.4,0.3 -29.3,-14.2 -5.8,0.7 -4.7,7.1 -42.8,-8.2 1,-14.1 4.6,-2.7 -3.6,-6.1 -56.5,-8.3 -15.9,6.2 -27.6,1.6 -7.5,19.8 -12.3,6.4 -5.5,-2.3 -12.4,9 h -8.4 c -21.8,12.7 -84.5,47.9 -100.5,66.9 l -22.5,-0.5 -7.3,5.2 -41.6,-1.9 1,17.6 c -23.5,-8.2 -78.5,-26.9 -102.4,-31 -25.8,-4.6 -201.3,-18.7 -221.6,-25.3 v 0 l -12.2,-14.6 c -11.5,1.6 -46.9,-13.9 -57.7,-18 l 38.2,-84.7 21.2,-11.2 c 3.2,-4.9 15.9,-21.5 15.4,-27.7 l -4.1,-7.6 -31.9,-21.3 c 1.4,-7.9 3.2,-42.3 10.2,-47.6 0,0 6.4,-43.7 6.4,-43.7 l 33.9,-11.3 22.8,-29.2 -9.6,-18.2 8.8,-7.6 -3.2,-3 2.3,-12.6 12.3,-1.4 v -6.6 l 13,-13.7 5.6,-1.2 c 6.3,2 20.1,10.8 25.7,14.6 l 3.2,6.9 6.4,1.5 c 6.2,6.7 20.7,22.8 23.1,31.7 0,0 14.2,10 14.2,10 3.7,18.4 5.9,18.8 18.5,31.6 l 0.1,5.7 12.5,0.8 c 2.5,2 11.7,10.7 15,10.7 l 1.2,-5.4 40.1,-15.4 18.9,-16.8 -3.4,-10.9 -12.9,-4.3 3.2,-12.1 -10.5,-19.1 -8.6,-44.1 1.9,-5.4 -12.3,-13.2 10,-2.5 9,6.9 16.5,4 c 10.5,-5 28.2,-23.4 35.7,-32.2 0,0 42.3,-13.1 42.3,-13.1 l 0.1,-6.7 -11.8,-17.8 7.4,-10.2 -1,-7.2 6.5,-5.8 11.1,3.8 12,-2.8 18.8,1.7 26.4,-21.1 57.6,-18.7 -4.5,-7.6 5.2,-4.4 -3,-4.3 14.7,-1.1 0.4,-6.3 h 6.4 l -1.5,-17.4 9,-12.3 19.8,2.5 -6.8,10 14.7,-3.6 2.1,-12.2 -7.4,-4.6 0.7,-13.7 15.8,4.5 z"/><path class="rg" data-region="11" tabindex="0" role="button" aria-label="Қарағанды облысы, 18 нысан" transform="matrix(0.26458333,0,0,0.26458333,-157.16826,64.590753)" d="m 4236.7,537.5 46,13.9 0.5,12.9 5.8,7.5 -8.9,28.3 0.8,17.3 -7.1,1.4 -3.6,6.3 5.8,7.4 -9.9,7.8 19.7,18.1 39,-5.6 10.8,-7.6 1.8,4.7 21.9,3.5 7.4,7.7 -7.7,5 8.9,19 9.3,-19.5 18.7,16.6 7.7,0.3 10.3,14.8 -4.7,2.3 3.6,8.7 15.4,5.1 2.2,6.9 -4.5,1.6 2,3.2 -26.8,6.7 0.2,3.7 -8.5,4.8 4.6,13.2 8.6,-0.3 2.5,4.8 13.4,-3.4 27.6,-16.9 6.5,-7.2 39.2,1.1 6.6,-7.9 6.4,-2.1 5.9,5.2 46.9,-10.8 17.3,8.5 6.3,-1.2 6.2,-13.9 3.1,1.9 10.5,-5 15,-1.4 15,7.4 5,-7.4 -0.8,-17.2 8.3,-27.6 13.7,-11.2 25.8,-5.6 23.6,20.9 27.9,0.9 22,11.8 7.9,23.5 -10.7,12.2 15.4,9.3 v 0 l -3,9.8 -19.7,13.7 -10.5,12.3 -24.8,10.7 -12.2,0.3 -3.7,13.3 4.1,5.1 -3.1,10.5 3.5,7.9 -14.6,24.8 -66.3,23.6 -2,9.9 10.7,10.4 -0.3,5.8 11.3,3.2 20.1,14 0.3,10.9 23.7,16.6 -12.8,4.6 -2.7,-3.3 -11.1,4.9 -1.9,17.9 9.4,15.9 54.7,-7.6 5.5,13.8 -5.5,25.9 -24.6,21.5 -17,-2.5 -6.9,5.5 1.5,8.9 -10.6,2.7 4.9,8.7 11.5,4.5 1.9,7.5 27.2,1.2 -2.9,6 -11.8,0.4 -3.5,8.8 17.2,13.3 13.5,-0.8 9.5,6.4 -24.9,7.8 8,9.8 -11,0.1 -1.2,13.9 -6.5,-0.3 -14.4,38.8 5.7,7.8 8.4,34.2 -12.1,-4.5 -12.5,1.7 0.7,12.8 -5.6,11.9 -10.4,3.4 11.9,5.2 6.8,10.1 12.8,8.1 19.7,6.3 6.4,-15.1 8.2,-4.3 15.5,6.5 13.1,-5.1 v 0 l 5.7,85.9 -40,3.9 0.2,10.4 -9.9,1.4 -4.3,-9.7 -13.1,-6 -13.1,1.6 -13.9,-6.1 -9.2,1.4 14.2,12.5 -40.7,-12 -4.2,8.5 -12.1,-3.8 -4.1,4.3 -3.7,-9.5 v 0 l -9,9.2 -7.6,-1.8 v 0 l 0.1,-4.8 -45.1,-6.8 -40.3,6.4 -31.4,-5.4 -75.4,37.5 -79.2,67.8 v 0 l -11.6,16.6 h -2.7 -220.7 l -127.9,3.8 -319.9,3.8 v 0 l -252.6,-3.8 v 0 l -2.1,-16.1 -6.5,-1.6 -53,2.5 -174.3,-41 -24.7,-12 -24.3,-23.7 -27.8,-2.1 -67.1,-31.2 -13.7,-0.3 -67,-22.6 -5.8,-5.1 -12.9,6.9 -39.6,-19.1 -17.7,1.2 -36.1,-24.6 -55.2,8.8 36.8,-24.7 v 0 l 157.5,-94.4 29.6,-27.9 -12.2,-4.7 -24.5,-36.5 v 0 l 37.7,-29.3 -7.4,-20.3 49.8,-9.3 -10.2,-11.1 4.6,-6.3 -5,-10.3 28.3,0.9 6.9,-43.9 103,14.5 9.9,-4.7 9.7,1.1 15.2,-4.5 8.9,-18.4 41.6,-1.3 40.1,-37.5 20.3,-2.1 8.7,-25.7 17.5,1.5 7.1,-14.9 20.4,-15.7 28.2,-13.9 74.1,-74.9 -6.3,-10.6 3.8,-3.4 -4.7,-7.6 4.7,-4.9 22.3,-2.4 24.5,-8.8 9.3,-6.8 11.9,-15.5 -2.3,-4.6 -14.4,-6.8 -0.6,-3.6 -7.6,-4.1 v 0 l -1,-9.8 -8.9,-10 26.8,-2.1 12.6,8.2 29,-18.1 16.3,-4.9 4.1,-6.4 41.4,-1 -1.9,39 -6.5,3.3 3,15 -5.9,7.7 -5.6,21.7 -9.6,8.9 4.6,6.9 10.7,-2.9 2.2,4.5 7.8,0.5 17.3,9.3 17.2,-7.6 9.2,3.6 -0.9,-17 9.9,4.3 11,-5.8 -4.7,-12.9 18.1,-8.2 2.5,9.8 7.6,-6.1 8.9,14 7.8,0.5 -3.2,14.4 24.3,-1.9 41.6,-10 4.1,9.9 6.3,-1.7 2.8,5.4 -11.9,14.5 -0.5,12.5 8.2,3.6 30,-14.5 14.8,-1.7 4.3,-7 -8.3,-17.7 28.8,-10.9 9.6,14.1 1.7,-36.8 20.3,-4.1 17.7,-10.4 -2.8,-5.4 10.4,-7.2 12,1 4.3,-7 9.7,0.1 3.8,-16.7 20,-7.1 -0.3,-4.5 6.2,-0.9 1.9,5.4 9.1,-2.9 1.8,6.1 9.6,-0.5 15.1,11.1 -9.1,10.3 5.3,5.7 -4.1,4.8 2.4,8.4 -12.2,14.4 8.3,2.3 3.3,-5.6 28,-2.4 16.7,10.6 -1.9,-5.4 8.9,-2.1 -3,-16.6 9.9,-2.7 5.3,-6.9 15.3,8.2 11.1,-4.8 -14.5,-8.2 9.7,-7.2 -3.8,-4.1 6.8,-5.3 4.9,2.1 0.8,-5.9 19.3,-1 9,-8.8 -2.5,-6.3 5.3,-1 7.8,-11.9 21.6,7.6 5.4,-7.7 18.9,-3.8 -4.7,-9.6 35.5,-9.6 19.9,-15.8 -24.3,-7.3 -7.1,12.7 -4.8,-2.7 1.4,-3.6 -8.2,-15.2 -5.8,-2.2 2.2,-8.8 6.5,-2.3 3.6,4.9 10.9,-2.6 -2.1,-3.2 3.6,-1.1 3.8,9.5 8.7,-11.1 z"/><path class="rg" data-region="12" tabindex="0" role="button" aria-label="Қостанай облысы, 11 нысан" transform="matrix(0.26458333,0,0,0.26458333,-157.69742,63.532423)" d="m 3208.9,-76.2 15.4,-3.4 9.7,24.1 -3.8,4.4 15.2,33.4 -25.6,7.4 c 6.4,3 27.1,15.2 34.4,13.5 l 7.3,15.4 -50.9,18.6 13.9,36.1 17.1,-3 0.3,29.2 -16.8,15 5.8,14.1 22.5,2 1.4,48.1 20.2,10.3 -3.4,12.1 -19.6,-3.4 -8.7,5.6 -14.1,-0.8 -5.9,5.8 4.8,17.8 6.6,0.3 1.1,16.7 -2.8,-0.1 0.9,20.4 -14.2,3 -1.6,57.4 v 0 l -1,42 -16.4,11.3 -11.4,48.1 -35,14.7 -23.2,-1.9 6.7,19 16.7,0.8 12.2,20.7 -11.3,27 6.3,4.1 -19,14 11.5,12.4 -7.6,5.6 28.4,22.8 -8.8,34.4 5.1,9.1 26.6,-2.5 8.3,-22.5 25,12.2 1.2,14.1 4.7,-3.5 -0.3,6.7 6.5,-2.7 4.4,3.2 10.2,-4 6.9,23.1 16.6,-3.6 c 6.3,6.3 37.7,14.2 46.2,16.8 0,0 33.1,-8 33.1,-8 l 11.5,3.5 8.7,18 -14.8,7.4 19,24.4 31.5,-16.6 58.3,-6.3 15.9,-10.1 v 0 l 7.6,4.1 0.6,3.6 14.4,6.8 2.3,4.6 c -4.3,6.2 -14.3,18.9 -21.2,22.2 0,0 -24.5,8.8 -24.5,8.8 l -22.3,2.4 -4.7,4.9 4.7,7.6 -3.8,3.4 6.3,10.6 -74.2,74.6 -28.2,13.9 -20.4,15.6 -7.1,14.8 -17.5,-1.5 -8.9,25.7 -20.3,2.1 -40.1,37.4 -41.6,1.3 -8.9,18.3 -15.2,4.5 -9.7,-1.1 -9.9,4.7 -103.2,-14.4 -6.9,43.7 -28.3,-0.9 5,10.3 -4.6,6.3 10.2,11.1 -49.9,9.3 7.4,20.2 -37.7,29.2 v 0 l -28.8,-46.7 -21.6,-12.9 -21.8,-7 -7.8,-7.4 -43.6,-12.5 -5.1,-14.6 8.9,-10 -0.8,-6.5 -13.9,-10.5 -28.9,13.3 -37.2,-31.1 -9.6,-27.9 -17.3,1.4 3.4,-8.1 20,-2.7 2.6,2.3 4.4,-2.9 -31.3,-41.4 11.3,-12.4 15.7,4.5 c -5.1,-2.8 -7.4,-20.1 -8.6,-25 l 21.1,-10.9 1.9,-18.4 21.3,-15.8 21.2,14.5 6.5,-18.9 c -0.8,-14.2 -33.5,-40 -34.4,-54.2 0,0 -17.7,-23.4 -17.7,-23.4 l -12.2,-51.8 -18.7,4.8 -2.6,-20.2 15.1,-8.8 -24.1,-19.3 4.5,-12.9 4.5,-0.6 V 561 l -19.8,-9.9 -10.7,10.4 -10.9,-3.5 -7.8,-29.6 -9.3,-12 -6,8.7 -9.8,3.6 -8.9,-3.6 v 0 l -15.7,-13.5 -9.3,-15.3 -4.3,-1 -13.3,5.9 -22.7,-10.1 -23.8,-1.4 -9.8,-13.9 -1.3,-11.9 c -24.2,-1.1 -51.7,4.3 -70.6,-15.3 l 15.9,-13.2 1.2,-4.6 -15.4,-2.6 -29.8,-16 0.3,6.9 -5.6,-0.3 -11.6,-11.5 1.6,-10.5 27.4,-3.8 30.9,-25.5 29.2,-2.3 9.8,-11.2 22.5,-7.5 14.4,-11.5 c -3,-5.5 -14.9,-22.8 -13.1,-29.5 l -16.6,-2.5 -1.1,-18 -16.8,-6.3 1.9,-17.4 16.7,-3.9 c 2.3,-7.2 23.6,-20.6 29.3,-24.8 l -6.5,-12.2 12.2,1.8 16.1,-11.1 17.9,8.1 11.8,-8.7 14.2,5 10.1,8 9.8,-6.2 c 5.3,0.2 17,1.1 21.5,-2.5 l 17.5,10.7 17.2,-9.8 -3.6,-20 c -10.5,-0.5 -32,-3.5 -41.5,-7.9 0,0 -17.6,-16.3 -17.6,-16.3 l -6,6.4 c -14,0.8 -20,1.7 -30.3,-9.1 l -20.3,-1.1 -8,-4.1 -3.4,-16.3 10.4,-9.3 3,-12 16,1.9 2.3,4.9 6.6,1.5 17.9,-7.6 1.2,-4.5 -4.3,-9.1 -7.1,-3 -11.8,0.4 -7.9,5.4 -26.5,-1.8 -7.1,-5.5 -25,-3.1 0.4,-9.1 10.7,-0.5 5.5,5.2 0.9,-10.4 8.5,-3.2 14.4,-14.5 -1.5,-6.5 -9.4,-8.8 -19.5,-3 1.2,-6.2 5,-4.1 16.1,-1.4 3.9,6.9 9.3,1.2 2.7,-11.3 -4.3,-6.1 c 0.2,-3.1 6.2,-8.8 8.2,-10.9 l 11.8,-2.9 8.9,1 4.6,11.8 11.5,4.4 4.2,7.6 6,-10.6 10.6,-3.2 7.2,8.2 8.3,-8.8 -0.7,4.7 7.6,0.2 -4.5,7.7 14.4,3.6 8,-1.6 -5.2,-13.4 9.3,-4.9 17.7,4.2 30.9,-4.1 6.9,5.2 -10.1,5.6 3.8,10.7 14.5,6.7 5.8,-15.4 27.4,-17.4 2.2,-6.4 40.7,1.5 5.4,-3.5 -0.2,-11.1 c 4.8,-4.6 27.7,-1.3 33.6,-1.1 0,0 53.4,-15.4 53.4,-15.4 l 19.9,0.6 4.7,-6.6 4.6,5.4 6.5,-6.6 14.1,1.9 14.4,-4.3 18.9,0.3 5.5,-6.3 7.1,1.2 12.4,-7.3 16.1,-1.6 1.6,8.6 27.4,-11.6 20.1,14.8 14.8,-0.3 2.3,-4.7 -6.7,-15.3 1.5,-13.4 20.9,-10.3 16.6,1.4 -4.3,-8 2.5,-5 21.9,1 16.4,6.4 6.3,-4.7 4.9,-11.8 14.1,-3.5 3.4,2.2 -2.5,12.8 z"/><path class="rg" data-region="6" tabindex="0" role="button" aria-label="Алматы облысы, 11 нысан" transform="matrix(0.26458333,0,0,0.26458333,-157.69742,65.119923)" d="m 4873.1,1231.7 22.6,15.7 16.8,1.3 6.5,14.4 59.4,-5.8 41.9,50.6 63.6,-19.2 28.5,10.2 -0.5,11.9 84.5,36.1 41.5,0.9 7.5,9.8 v 0 l 13.8,-4.4 v 0 l 8.2,12.9 6,-7.4 v 0 l 3.9,0.1 -5,6.8 4.5,0.8 v 0 l 9.3,3.2 7.5,-7 -2.5,5.8 v 0 l -6.7,4.4 7.7,0.8 -4.7,5.4 44.3,44.9 v 0 l 10.4,34.3 21.6,20.5 -2.5,34.6 4.9,3.7 13.8,-4.3 v 0 l 19,12.7 24.9,6.6 3.6,11.8 -5.1,21.2 -14.2,18.3 -24,-17.5 -7.1,-1.6 -39.8,13.1 -7.6,-8.7 -10.6,0.8 -4.1,-16.8 -13.1,-9.9 -8.5,2.1 -18.8,13.1 -6.6,0.9 -2.9,-3 -6.4,5.3 -5.6,-1.9 -4.1,3.4 -9.3,0.2 -7.9,5.8 -7.8,-1.4 -4.1,7.3 -16.5,1.2 -8.1,6 -21.6,-7.1 -4.3,6 -12,4.5 -18.1,-1.2 -11.9,12 -9.7,-3.6 -12,5.8 -19.5,-3 v 6.4 l -2.6,-0.5 -28.3,20 15.9,2.1 3.9,10.2 5.4,2.6 33.2,-6.3 1.3,4.1 6.9,-0.9 3.2,5.5 15.7,8.9 0.7,4.3 -16.8,8.2 5.7,7.7 -8.2,20.9 10,57.4 13.7,48 30.1,60.8 -11.1,24.8 12.8,1.9 5.5,18.3 -3,5 -24.5,2.7 -27.3,14.8 2.1,8.6 10.5,7.4 11.4,2.6 2.6,5.4 -11.8,1.5 -13.5,7.2 H 5111 l -5.3,21.2 -6.8,10.9 5.6,14.3 9.1,5.1 -9,8.7 2.4,17.6 6.3,4 -1.6,4.8 3.2,4 -1.2,5.8 -4.4,2.3 -6.5,-1.6 -10.5,4.1 0.2,-10.7 -4.7,-8.9 -13.7,-7.5 -5.7,-9.6 -8,-0.5 -3,2.8 -2,-3.7 -23.8,-5.3 -6.5,4.1 -14.2,-0.8 -20.2,-21.3 -18.6,-10.4 -6.9,-8.6 V 1963 l -9,2.1 -3.5,4.9 -6.5,-4 h -12.9 l -27.6,-10.6 -4.9,1.6 -3.8,-4.5 -13.7,-2.8 -8.2,-6 -11.6,4.3 -4.3,-1.4 -5.6,4.9 -20.4,-4.1 -2.7,3.8 -6.7,-1.1 -6.5,4.2 -5,-4.7 -7.1,2.8 -4.3,-4.1 -16.1,-1.6 -4,-4.1 -44.7,-4.1 -25.4,3.6 -11.2,-7.4 -32.9,-2.7 h -11.1 l -12.1,4.8 -4.3,6.6 -27.8,-2.2 -3.8,4.8 -18.4,3.8 -10.5,-8.7 -31.1,1.5 -14.4,-7.2 -15.1,3.6 v 0 l -2.4,-5.6 -6.9,2.7 -7.4,-4.1 -12.9,1.3 v 0 l -1.5,-2.7 7.7,-2.1 v 0 l 3.6,-6.5 -38.1,-12.9 -3.2,-11.6 -5.2,-2 1.9,-7 -5.1,-2.7 1.5,-13.7 17.7,-19 -4.8,-7.1 -20,2.1 2,-5.6 -12.1,1.9 -23.2,-6.9 v -10.4 l 34.9,-26.6 3.2,-7.6 -3.1,-11.7 8.9,-13.1 -0.6,-20.2 -13.9,-8.3 -7.6,-9 -8.3,-1 -15,-10.6 -29.8,-2.8 -25.5,-21.4 -4.3,-6 6.1,-19.7 -12.8,-19.3 -42.9,-26.3 -7.8,-12.6 -1.1,-20.1 -37.5,-0.8 -2.4,-30.6 40.3,2.6 -7.3,-16.8 -5.8,-61 12.7,-18.6 v 0 l 22.4,-37.1 v 0 l 80.1,-68.6 76.3,-37.9 31.8,5.5 40.8,-6.5 45.6,6.9 -0.1,4.9 v 0 l 7.7,1.8 9.1,-9.3 v 0 l 3.7,9.6 4.1,-4.3 12.2,3.8 4.2,-8.6 41.2,12.1 -14.4,-12.6 9.3,-1.4 14.1,6.2 13.3,-1.6 13.3,6.1 4.4,9.8 10,-1.4 -0.2,-10.5 40.5,-3.9 -5.8,-86.9 v 0 l 3.6,-5.8 34.5,6.6 19.6,-18.9 17,15.5 v 0 l 21.5,-23.6 z"/><path class="rg" data-region="17" tabindex="0" role="button" aria-label="Солтүстік Қазақстан облысы, 4 нысан" transform="matrix(0.26458333,0,0,0.26458333,-157.16826,62.474089)" d="m 3635.3,-223.7 5.1,7.1 23.3,-5.7 15.5,4.6 23.8,-0.3 25.8,9.6 10.7,16.2 14.6,3 13.2,9.9 9,0.2 9.1,-7.1 14.6,-5 10,-15.2 21,4.1 9.8,-5.6 15.8,-1.7 c 0.9,9.8 20.2,33.9 25.9,41.7 l 0.8,23.8 -3.4,10.2 6.9,9 1.6,12.2 10.4,12.1 13.3,2.7 8.7,6.6 0.1,7.4 -13.9,5.9 -0.6,16 5.1,19 -3.9,13 -25,-3.1 1,8.7 10.7,4.7 -4.5,11 7.6,5.8 4.8,11.1 6.5,0.8 13.1,-12.3 c 4.2,-2.5 21.3,3 25.7,3.9 l 1.8,8.7 9.3,-1.4 9.4,2.6 12.2,-6.6 -2.8,-9.8 5.6,-10.3 34.2,4.7 9.8,8.9 -0.4,3.5 10.4,4 3,-9.5 -14.8,-8.2 5.8,-10.8 -12,-12.5 13.3,-1.2 16.7,8 1.7,11.7 6.2,3.2 -1.9,9.1 24.5,9.1 0.4,5.2 -8.2,-1.4 -8.7,2.5 -0.8,3 7.6,9.1 -5.6,15.6 13.7,7.9 9.8,-14.6 22.4,7.3 -7.6,-17.7 h -19.2 l 3.2,-11.5 7.6,-4.5 50.6,6.5 -0.4,8.1 8.7,1.1 3.6,9.4 29.3,7.8 15,-0.4 1.1,-6.3 15.7,7.4 -2.1,-10.2 15.9,-6.6 0.3,-5.9 15.6,3.6 -7.9,35 -30.2,-3.6 -4.5,6.7 3.3,5.8 -14.4,3.3 -2.5,19.5 -9.3,1.2 3.2,6.8 -4.8,12.9 20.5,7.5 -2.8,9.9 9.6,5.6 v 0 l 17.9,26.7 -5.1,4.3 -11.3,-4.5 -3.1,17.1 3.3,16.1 19.1,-13.5 0.5,-3.9 7.6,-2.3 2.1,4.2 6.9,-3.8 6.3,7.9 -14.2,10 0.9,6.5 -12.7,19.7 -8,5.3 3.2,2.7 14.8,-8.5 4.4,7.6 -9.5,9.1 3.4,14.4 18.1,-0.2 8,-17.7 6.1,1.6 13.2,-3.8 7.5,16.6 -6.8,3 1.3,9.5 -8.5,2.8 1.9,17.3 -6.6,2.3 -5.7,-10 -9.8,-1.2 -6.2,-7 -2.7,6.7 6.8,14.7 24.9,1.5 0.8,7.1 -51.7,-3.2 -9.6,-15 -10,0.3 -1.6,-7.1 -18.1,0.3 -25.6,-10.7 -17.1,6 -3.7,-32.3 -5.6,-5.2 -2.9,-19 -4.5,0.3 -4.3,5.1 -14.4,0.1 -12.4,5.1 -5.7,-4.4 -25.8,4.7 -6.3,13.3 c -17.5,2.6 -53.1,0.7 -70.6,-2.1 l -8.2,-13 -0.1,-6.1 8.5,-3.2 -4.3,-9.6 9.7,-19.3 -27.7,-24.5 0.8,-6.9 -13.6,-0.3 -4.5,7.4 -8.3,0.9 -11.9,8.3 -11.8,-0.1 -1.4,-3.2 -21.6,-3.2 0.8,-16.1 -56.4,1.3 -3.2,15.1 -12.1,1.4 2.5,13.2 -13,1.4 -2,-8.6 -14.3,-17 c -4.2,3.7 -27.5,2.8 -32.8,3.1 l 4,-2.9 -0.5,-5.4 5.6,-0.3 -1.5,-4.7 5.8,-2.7 -1.2,-10 -9.6,3.2 -16.6,-3.4 -3,3.6 -4.5,-1.9 3.2,-5.9 -1.5,-18.6 -7.4,-2.1 -1.3,-8.5 -29,-0.4 -5,4.3 -6.5,0.3 -3.2,5.2 -7.4,-1.3 -2.5,9.1 -5.6,0.5 2.3,8.5 7.4,1.3 -4.3,8.2 -9.2,-2.1 -3.1,-14.3 -5.6,-1.2 -1.6,-4.7 -8.4,-1.3 -0.4,-7.8 -13.1,-0.8 0.4,9.3 -18.8,1.1 -0.6,-5.4 -13.1,-0.8 -1.2,4.5 -10.3,-0.6 6.9,12 -3,2.9 -19.7,-0.5 0.4,9.2 6.5,-0.3 -4.1,6.7 -3.5,-3.3 -6.8,4.2 -0.3,4.5 -9.5,1.7 -4.1,5.1 9.6,11.3 0.6,6.1 7.4,2 4.2,7.1 14.9,1 -1.7,12.9 9.3,0.5 2.3,6.3 -0.5,7.6 -4.7,1.2 7.8,8.9 -20.5,15.5 6.3,17.9 -7.4,-1.2 11.3,10.6 -25.6,8.3 -2.3,6.7 -15.1,5.2 -9.6,19.9 -14.7,-1.6 -5.7,2.7 -5.2,9.5 -19.4,-0.3 3,12.3 8.2,2.7 1.5,5.4 -16.7,14.9 -5.3,-3.3 -4.1,5.8 3.4,4 -7.8,6.3 -17.7,-12.3 -19,-6.3 -7.8,-8 -29.7,0.6 1.5,37.8 -28.2,-8.2 -8.5,4 -14.8,-1.5 -13.5,-6 h -42.8 l -1,-17.4 -25.4,3.2 -19.9,7.3 -11.3,-19.5 -21.5,-1.1 v 0 l 1.6,-57.6 14.2,-3 -0.9,-20.5 2.8,0.1 -1.1,-16.8 -6.6,-0.3 -4.8,-17.9 5.9,-5.8 14.1,0.8 8.7,-5.6 19.6,3.4 3.4,-12.1 -20.1,-10.2 -1.4,-48.3 -22.5,-2 -5.8,-14.2 16.8,-15.1 -0.3,-29.3 -17.1,3 -13.9,-36.2 50.8,-18.7 -7.4,-16.1 c -7.2,1.8 -28.3,-10.5 -34.5,-13.5 l 25.6,-7.4 -15.2,-33.5 3.8,-4.4 -9.7,-24.2 v 0 c 22.2,-6.3 61.6,-20.4 84.8,-16.7 l 8.3,-7.5 33.5,-1.6 5.4,-4.6 25.5,-4 4.5,-8.5 c 28.2,4.8 31.8,7.8 59.8,-3 l 4.1,-11 9.9,-6.5 20.8,6.3 23.8,-2.7 2.3,-12 9.1,-8.6 -11.3,-10.7 -3.4,-11.2 15.1,-1.9 6.9,3.7 6,-3.5 c 4.4,0.2 27.4,-2.6 30.6,1.4 l 4,-11.5 7.6,-5.4 2.7,-11.2 5.5,-3.4 30.5,13.1 0.6,-9.8 -3.8,-3.4 -6.7,0.3 -0.6,-7.8 4.5,-5.9 14.2,2.3 z"/><path class="rg" data-region="15" tabindex="0" role="button" aria-label="Түркістан облысы, 27 нысан" transform="matrix(0.26458333,0,0,0.26458333,-158.75576,65.64909)" d="m 3375.4,1450 250.2,3.8 v 0 l 24.2,32.5 30.2,74.8 16.5,62.4 7.6,9.5 22.3,120.9 -5,3 -2.4,13.9 -9.3,12.8 -2.2,18.7 -16.4,40.3 -18,22.8 14,4.3 -3.7,5.2 5.8,15.8 10.2,-2.7 -1.5,5.9 9.3,-1.2 14.2,9.1 4.1,-8.9 3,0.2 2.6,9.6 12,1 3.3,4.3 4.7,-1.6 3.3,3.6 -2.4,7.1 6.8,5.8 4.9,-3 3.4,2.3 -4.8,7.6 8.5,4.7 -3.4,3.1 4.5,5.6 -1.4,21.1 2.6,2.9 -3.3,7.7 14,7.7 9.8,-0.5 1.5,5.4 7.9,2.6 0.8,5.2 4.3,1 5.5,8.9 7.3,1.2 9.1,14.1 9.1,-2.5 v 7.6 l 5.9,0.3 7.8,10 v 0 l -1.2,12.3 8.7,0.8 -13.7,10.6 -5.9,-2.6 -4.5,3.8 -11.6,12.7 -6.8,17.6 -9.3,-2.9 -1.7,-8.3 -18.5,-9.9 -2.7,7.8 -9.3,8 1.1,9.5 -12.4,5.6 -10.9,15.8 -13.4,6.6 -3.1,6.4 -6.6,-3.7 -5.6,11.3 -8.7,3.2 -7.2,-3.6 -28.8,9.9 -14.5,16.1 -12.8,5.8 -2.1,3.5 3.7,7 -30.2,0.1 -13.2,11.5 -3.4,7.6 -7.6,-0.3 -12.1,24.1 -11.2,7 -19.9,29.3 -9.6,5 -1.5,-4.2 5.3,-3.3 -8.2,-1.2 -1.4,-4.1 -6.9,3.9 -15.4,-2.3 0.1,3.4 10.6,0.6 2.6,3.7 -2.1,28.8 22.6,29.7 -12.7,4.6 -7,-0.5 -2.3,3.1 -14.4,-3.9 1.6,-3.1 -5.6,-4.2 -5.5,1.3 -12.1,-9.3 -11.1,-3.5 -10.6,-10.6 -24.2,-10.8 -4.2,-5.3 2.1,-6 12.1,-0.4 -0.3,-13.8 4.4,-3.9 -4.1,-9.1 11.4,-5.3 -8.2,-3.9 -15.8,5.5 -22.6,-18.7 -39.1,0.3 -97.1,-8.1 -9.8,-102.5 -68.2,-7.6 3.5,-68 20.8,3.7 52.9,-49.8 18.4,10.3 36.9,-33.7 32.7,-22.3 35,-11.7 56.3,-27 0.5,-5.4 -9.3,2.3 -5.1,-11 2.3,-8.6 -7.6,0.3 1.4,-7.3 -7.2,3.6 2.1,10.2 -5.6,3.1 -3.9,-15.6 13.2,-3.5 1.6,-18.7 12.5,-11.5 -0.1,-25.6 12.9,10.1 5.6,-2.4 1.5,-17.5 -6.6,-12.5 14.7,-9.3 5.1,3.6 9.2,-8.2 -36,-23.1 -15,-16.4 -0.3,-5.5 -15,-7.6 -7.9,2.3 -13.9,-12.2 4.2,-13.5 -0.8,-115 -20.8,-7.9 -24.9,-18.3 13.6,-56.7 11.8,-17.4 -4,-11.3 -20.7,-14.2 z"/><path class="rg" data-region="8" tabindex="0" role="button" aria-label="Атырау облысы, 7 нысан" transform="matrix(0.26458333,0,0,0.26458333,-158.22659,64.061586)" d="m 1049.3,1396.3 -3.1,0.3 c -4.7,-4.6 -9.7,-20 -11.6,-26.2 l 9.3,1.8 6.6,6.5 2.3,7.4 z m 511.2,-505.9 10.6,8.3 16.4,6.3 -2,4.8 8.2,3.4 6.1,-13.3 7.1,1.4 9.4,40.4 -3.8,10 5.7,11.1 -5.4,11.6 55,7.7 2.9,-25.3 8.8,1.9 4.4,-6.4 10.2,6.3 v 4.1 l 23.9,1.7 0.6,27.8 -3.9,2.5 -4.4,27.5 12.4,35 -4.8,15.8 20.7,20.2 3,32.2 9.1,13.5 -15.5,97.4 c 20.8,21.9 20.3,21 28,50.2 l 39.9,35.2 105,30.5 1.6,22.3 15.6,17.8 -2.5,7.1 10.8,19 -11.9,-6.4 -10.3,0.7 -6.3,-5.2 -9.2,4.2 -14.1,-3.8 -3.5,-9.4 -5.9,-2.3 -6.8,4.2 -16.7,-6.1 -0.1,-14.7 -4.6,-12.2 -6.5,-0.8 -9.7,5.9 -8.7,-4.8 -16,-20.1 -31.3,27.4 c -9.7,-3.7 -56.6,2.2 -67.2,2.9 0,0 -25.5,8.8 -25.5,8.8 -13.1,-1.5 -45.6,5.3 -58.6,8.2 l -2.7,3.9 -20.5,-2.2 1.9,7.5 -7.2,12.2 -30.2,19.9 13.9,7.2 -22.1,14.6 -34.4,12.5 -20.5,-2.4 -4.3,9.4 -48.3,-7.5 v 0 l 7.2,-1.6 -5.1,-1.6 -0.3,-5.5 3.7,-4.8 10.2,-0.9 -6.3,-5.3 7.2,-2.7 -8.9,-11.5 8.9,-4.4 -14.1,-10.9 7.6,-3.2 -7.1,-5 1.2,-4.5 9.5,-1.8 -3.4,-6.8 8,-7.1 2.7,2.7 0.5,-4.7 -4,-2.1 5.7,-14.4 11.9,-8.9 -3.8,-2.1 5,-1.4 -11.2,-9.6 0.3,-15.2 5,-4.4 -5.3,-1.7 -0.8,-12.4 -9.9,0.8 3.9,-3.5 -6.9,-4.1 2,-8.8 -3.6,-0.5 -9.7,8.1 -6,9.1 -1.8,-12.4 -8,1.1 1.4,-6.1 -9.1,-5.5 6,-3.2 -5.2,-8.4 -19.7,3.4 -8.2,6.3 -7.1,-5.5 -3.6,14.5 -5.6,3 -79,-21.4 0.8,6.5 8.5,6.9 -3.3,11.6 -1.2,-10.6 -8.6,-7.4 -3.2,-10.6 -14.5,8.5 6.9,-5 4.7,-12.4 -11,8.1 2.9,-6.8 -7.6,-7.7 -34.6,-5.5 -19.1,9.6 -1,4.4 -30.8,-2.8 -5.6,5.1 -4.4,-0.3 -9.6,13 -3.8,-1 0.8,-6.8 h -3.6 l -7.8,6.8 -6.2,16.1 -3.8,-2.3 0.8,-6.4 -6.5,3.1 -4.5,-11.4 -10.2,15.5 -1.4,-6.9 -5.3,1.9 -12.6,21.8 -2.3,-14.1 -12.9,10.9 -11.1,17.8 -16.7,-0.2 -5.2,7.2 0.7,5.5 -7.5,6.4 -9.3,-4.2 0.7,8.1 6.4,4.5 -6.4,-0.2 7,8.2 -14.8,-5.3 -3.5,4.8 -5.7,-1.6 -1.9,9.9 -8.5,-8.7 7,16.9 -22.7,-12.5 -2.7,2.1 -5.9,-11.5 5.6,-1 -5.8,-8.6 -9.8,-1.7 17,28.1 -5.9,4.8 -4.1,-2.7 -6.2,-21.1 -11.8,-8.6 -8.1,0.1 2.9,5.4 5.2,0.1 3.1,8.4 -8.3,-5.5 2.3,5.2 -3,1 -3,-10.7 -5.5,-1.3 8.3,15 -46.4,-19.5 -6.1,-9.4 -12.9,-4.2 -4.3,-7.4 -13.4,0.1 -2,-6.3 -8.5,-2.1 4.1,-12.7 9.4,-7 10.2,0.5 12.7,14 c 4.4,1.3 17.3,-0.4 21.9,-0.9 l 12.3,-12.5 c -0.7,-9.4 -24.4,-34.3 -30.2,-41.3 -4.6,-8.1 -14.8,-32 -18.6,-40.8 0,0 -4.7,-27.7 -4.7,-27.7 l -30.6,-3.2 -26.8,-41.7 -17.5,-14.5 -49.2,3 -37.6,-12 -4.2,23.6 -24.3,-12.3 -11,-11.4 6.3,-3.6 -19.4,-27.9 19.1,-10.4 4.9,0.4 1.5,-3.4 -14.9,-4.5 1.3,-16.8 -12.1,-8.6 v 0 c 19.5,6.5 198.6,21.1 223.8,25.6 23.9,4.1 80.1,23.1 103.4,31.3 l -1,-17.8 42,1.9 7.4,-5.2 22.7,0.5 c 15.8,-19.2 79.6,-54 101.5,-66.2 l -1.1,-0.1 12.6,-10.3 5.6,2.3 12.4,-6.5 7.5,-20 27.9,-1.6 16.1,-6.3 57.2,8.4 3.6,6.2 -4.7,2.7 -1,14.3 43.3,8.3 4.8,-7.2 5.9,-0.8 29.6,14.4 14.6,-0.3 9.5,-5 -3,-8.5 9.4,-33.9 16.3,-0.6 -2.1,-42.1 11.9,4.6 8.1,-15.9 c 4.4,5.5 48.8,3 55.2,3.5 0,0 20.9,-5.7 20.9,-5.7 l -3.5,-7 z"/><path class="rg" data-region="7" tabindex="0" role="button" aria-label="Ақтөбе облысы, 17 нысан" transform="matrix(0.26458333,0,0,0.26458333,-157.16826,64.590753)" d="m 2275.1,1431 -32,11.6 -12.5,19.2 -5.9,24.3 -5.8,2.5 -4.7,11.4 -247.1,66.5 v 0 c -4.3,-23.2 -17.1,-134.1 -31.2,-152 v 0 l -11,-18.7 2.5,-7 -15.7,-17.6 -1.6,-22 -105.6,-30 -40.1,-34.8 c -7.9,-29.1 -7.4,-27.8 -28.2,-49.4 l 15.6,-95.9 -9.1,-13.3 -3,-31.7 -20.8,-19.9 4.8,-15.6 -12.5,-34.5 4.4,-27.1 3.9,-2.6 -0.6,-27.4 -25,-1.7 -0.1,-9.5 -9.9,-6.1 -4.4,6.2 -8.6,-1.9 -2.9,24.7 -53.9,-7.5 5.4,-11.4 -5.7,-10.9 3.8,-9.8 -9.2,-39.6 -6.9,-1.4 -6,13 -8.1,-3.4 2,-4.6 -16.1,-6.1 -10.5,-8.1 v 0 l -1.2,-16 8.7,-25.1 -4.7,-9 8.2,3.5 5.4,-11.7 10.2,-7.7 13,0.1 2.4,-8.4 27.7,1.4 13,-6.4 -3.1,-4.8 12,-15.9 h 16.2 l -7.8,-8 12.9,-18.9 5.5,-15.2 -1.7,-8.8 -15.6,-9.6 2,-26.8 -10,-11.7 14.2,-12.6 -2.3,-4.9 16.7,-16.7 -2.1,-2.5 v 0 l 6.6,1.5 15.1,-15.9 -9.8,-30.8 6.8,-14.6 15.6,1.9 7.1,7.9 6.5,-6.5 8.4,-0.7 2.5,-6.9 5.7,-2.3 6.8,4.5 -5.6,12.9 c 1.4,3.4 35.5,27.3 39.1,30.1 l 17.3,-1.9 2.7,5.4 24.8,12.6 5.6,-7.2 31.8,-13.3 21.2,-13.1 0.2,-13.3 7.4,-16.8 22,4 5.2,-10.5 10.5,-1.1 -1.3,-15.4 4.5,-4.2 18.5,17.1 12.6,3.2 2.7,-5.8 -3.1,-12.9 13.7,-0.7 9.6,5.1 7.2,-3.8 8.7,4.1 21.3,-7.7 4.9,9.1 9.5,4.7 7.8,15.2 21.2,9.1 1.4,-7.1 11.1,-4.4 h 7.6 l 3.6,5.9 5.6,-2.1 4.1,-36.4 8.5,-1.7 7.2,6.5 7.2,-2.7 2.5,4.1 7.6,2 11.7,-7.6 2.2,8.3 10,1.9 5.4,-6.2 -1,-5.1 10.4,-5 4.5,1.5 6,14 c 5.7,-0.1 20.7,-0.4 25.9,2.1 l 5.2,8.9 -5,12.2 4.3,20.1 7.2,1.9 16.8,-3.3 1,11.2 9.2,3.6 7,8.9 c 7.3,1.2 44.8,2.1 49.5,8.9 l 3.2,-2.3 11.5,2.3 11.7,-2 8.5,9.7 -3.2,3.5 1.9,12.2 40.2,-12.2 22.8,-42.8 8.7,-6.5 15,3.7 1.6,9.6 16.3,16.9 c 13.5,4.5 53.6,5.3 68.2,5.6 16.5,-0.8 63.9,-17.9 79.9,-23.4 5.9,1.1 19.7,-75.3 21.3,-79.4 l 11.2,-3.1 8.9,3.6 9.8,-3.6 6,-8.7 9.3,12 7.8,29.7 10.9,3.5 10.7,-10.4 18.5,9.9 v 6.8 l -3.2,0.6 -4.5,12.9 24.1,19.4 -15.1,8.8 2.6,20.3 18.7,-4.8 12.2,52 17.7,23.5 c 0.9,14.2 33.6,40.2 34.4,54.4 l -6.5,19 -21.2,-14.6 -21.3,15.9 -1.9,18.5 -21.1,10.9 c 1.2,5 3.5,22.2 8.6,25.1 l -15.7,-4.5 -11.3,12.4 31.3,41.5 -4.4,2.9 -2.6,-2.3 -20,2.7 -3.4,8.1 17.3,-1.4 9.6,28 37.2,31.2 28.9,-13.3 13.9,10.5 0.8,6.5 -8.9,10 5.1,14.7 43.6,12.5 7.8,7.4 21.8,7 21.6,12.9 28.8,46.9 v 0 l 24.5,36.5 12.2,4.7 c -13.8,24 -162.3,106.3 -187.1,122.3 l -10,2.7 -5.8,-7.2 -38.4,-5.1 5.8,-11.5 -36.8,-40.2 -16.7,2.2 -33.8,-47.3 -81.2,15.9 -46,105.5 -55.9,-3.9 -3.8,36.4 -41,2.9 -53.8,43.1 z"/><path class="rg" data-region="16" tabindex="0" role="button" aria-label="Павлодар облысы, 5 нысан" transform="matrix(0.26458333,0,0,0.26458333,-157.16826,63.532416)" d="m 4651.8,-31.3 8.9,1.1 2.7,9.9 -4.3,5.3 0.4,8.5 -11.3,7.6 -1.2,6 -12.6,6.2 -6.1,-6.3 -24.3,-1.4 0.6,6.7 8.9,9.6 6.6,15.8 c 17,16.5 115.1,78.8 136.7,93.1 71.7,49 135.3,162.7 182,233.9 0,0 30.4,41.3 30.4,41.3 l 25.4,45.7 -10,1 -3.6,17.3 -20.5,4.3 3.6,9.7 -17.2,13.9 -3.7,-3.6 -26.7,3.2 0.6,10.6 6.9,-1 -0.8,15.5 -6.9,-2 c -9.9,5.7 -32.9,17.7 -44.4,18.8 l -3,-5.8 -8.2,3 -1.7,6.4 -14.4,6.4 -3.1,-2.1 -11.4,9.2 16,19.2 3.6,17.7 10.2,2.5 17,14.9 36.7,19.1 -4.8,39.1 12.6,3 3.8,22.7 c -8.1,3.8 -27.1,35.6 -32.1,43 l -18.4,7.1 c -14.9,-1.2 -64.4,-19.5 -79.1,-24.6 l -7.9,-11.6 -8.9,4.4 v 0 l -15.4,-9.3 10.7,-12.2 -7.9,-23.5 c -23.2,-13.7 -23.8,-12.2 -50,-12.7 l -23.6,-20.9 -25.8,5.6 -13.7,11.2 -8.3,27.6 0.8,17.2 -5,7.4 -15,-7.4 -15,1.4 -10.5,5 -3.1,-1.9 -6.2,13.9 -6.3,1.2 -17.3,-8.5 -47,10.8 -5.9,-5.2 -6.4,2.1 -6.6,7.9 -39.3,-1.1 c -3.1,6.5 -28.2,20.3 -34.1,24.1 0,0 -13.7,3.9 -13.7,3.9 l -2.5,-4.8 -8.6,0.3 -4.6,-13.2 8.5,-4.8 -0.2,-3.7 26.8,-6.7 -2,-3.2 4.5,-1.6 -2.2,-6.9 -15.4,-5.1 -3.6,-8.7 4.7,-2.3 -10.3,-14.8 -7.7,-0.3 -18.7,-16.6 -9.3,19.5 -8.9,-19 7.7,-5 -7.4,-7.7 -21.9,-3.5 -1.8,-4.7 -10.8,7.6 -39.1,5.6 -19.7,-18.1 9.9,-7.8 -5.8,-7.4 3.6,-6.3 7.1,-1.4 -0.8,-17.3 8.9,-28.3 -5.8,-7.5 -0.5,-12.9 -46.1,-13.9 v 0 l 14.4,-14.1 2,-12.6 29.8,-16.1 13.6,3.2 15.7,-10.2 -13.1,-6.3 -15.7,-1.2 -6.8,-13 -24.5,9.9 0.7,-33.4 23,-16.3 8.2,-1.2 -2.8,-4.9 -3.1,-112.9 -7,-0.8 -0.4,-3.2 v 0 l -0.8,-7.1 -24.9,-1.5 -6.8,-14.7 2.7,-6.7 6.2,7 9.8,1.2 5.7,10 6.6,-2.3 -1.9,-17.3 8.5,-2.8 -1.3,-9.5 6.8,-3 -7.5,-16.6 -13.2,3.8 -6.1,-1.6 -8,17.7 -18.1,0.2 -3.4,-14.4 9.5,-9.1 -4.4,-7.6 -14.8,8.5 -3.2,-2.7 8,-5.3 12.7,-19.7 -0.9,-6.5 14.2,-10 -6.3,-7.9 -6.9,3.8 -2.1,-4.2 -7.6,2.3 -0.5,3.9 -19.1,13.5 -3.3,-16.1 3.1,-17.1 11.3,4.5 5.1,-4.3 -17.9,-26.7 v 0 l 17.3,-13.7 2.3,-8.1 6.9,1.4 3.4,-11.8 9.3,0.9 11.8,6 9.3,-11.3 22.8,4.2 -1.4,12.6 11.7,0.9 2.5,-9.4 9.6,1.6 5.3,19.1 16.3,4.9 10.8,-21.5 -5.8,-2.7 4,-16.1 22.6,3 6,-16.3 11.4,-0.5 5.4,-11 22.6,1.2 4.7,5.2 58.4,-33.7 3.8,-7.6 -11.3,-13.1 17.7,-7.4 10.9,3 82.1,-30.8 -2.9,-6 3.8,-8.9 29.5,5.6 13.7,-4.1 12.5,0.2 11.1,-13 26.1,-7.2 0.3,5.6 z"/><path class="rg" data-region="14" tabindex="0" role="button" aria-label="Маңғыстау облысы, 15 нысан" transform="matrix(0.26458333,0,0,0.26458333,-158.22659,65.119923)" d="m 1152.4,1633.9 5.9,-0.3 -9.3,8.6 -0.1,-14.9 z m 10,-20.8 5.8,-4.3 3.5,3.9 -0.2,9.9 6,2.7 -12.3,1.2 3,-3.7 -3.6,-1.2 1.6,-5 -10.2,-6.1 3.2,-4.1 -1.5,3.2 z m -83.5,-19.2 7.6,3.2 -7,0.8 -3.3,3.8 2.3,13.9 4.7,1.2 -1.6,4.5 3.3,4.2 8,3.4 8.2,-2.1 -2.2,5.8 -16.7,-5.3 c -4.1,-4 -8.2,-15.1 -9.7,-20.5 z m 35.8,-2.4 5.4,0.8 1.9,11.9 -13.4,20.5 -1.2,-15.9 -5.4,-10.9 z m 309,-74 4.9,-0.9 c 2.9,4.7 5,15.9 5.4,21.4 l -4.9,1.2 0.6,2.1 -6,-1.6 -11.3,-15 7.7,-6.1 -2.1,-4.1 z m 23,-42.8 48.6,7.4 4.3,-9.3 20.6,2.4 34.6,-12.3 22.2,-14.4 -14,-7.2 30.4,-19.6 7.2,-12 -1.9,-7.4 20.6,2.1 2.7,-3.8 c 13.3,-2.9 45.6,-9.6 58.9,-8.1 0,0 25.6,-8.6 25.6,-8.6 10.9,-0.8 57.6,-6.5 67.6,-3 l 31.5,-26.9 16.1,19.8 8.7,4.6 9.8,-5.8 6.5,0.8 4.6,12 0.1,14.4 16.8,6 6.8,-4.1 5.9,2.2 3.5,9.3 14.2,3.6 9.2,-4.1 6.3,5 10.4,-0.6 12,6.2 c 14.1,17.4 27,129.3 31.2,151.9 l -94.6,27.1 0.3,593.9 -17.7,-0.5 -7.8,7 -5.8,-3 -12.9,2.1 -8,6.9 -5.4,-6.9 -4.1,5.4 c -8.2,-0.1 -34.2,-28.5 -40,-33.6 -7.4,-13.9 -25.9,-46.8 -38,-56.9 l 0.6,-14.2 c -6.8,-16.8 -87.4,-59.2 -102.4,-68.9 -18.8,-1 -61.5,4.6 -80.4,7.8 0,0 -73.8,24.6 -73.8,24.6 l -78.8,59.5 6.6,-22.8 c -13.5,-36.5 -13.3,-33.7 10.3,-64.2 0,0 14.8,-39.7 14.8,-39.7 l -4.8,-13.1 -12,-13.5 2.5,-3.4 1,6.2 12.1,11 4.1,10 5.1,-7.4 -0.5,-16.8 -11.5,-4.3 -4.6,1.7 -0.9,-9.9 -18.4,-4.8 -16.1,0.6 -8.4,6.9 -7.4,-10.7 c -11.2,-7.3 -31.3,0.5 -42.7,3.9 l -19.2,-31.6 -15.4,-12.9 -0.7,-12.1 -50.5,4.7 c 3,-28 13.7,-49.7 -7.5,-74.3 l -7.7,-2.4 -17.6,-27.6 -5,-23.8 -16.2,-13.7 1,-10.8 -6.2,-17.1 -21.1,-11.5 -35,-3.9 -17.8,-8.9 -4.6,-7.8 -2.1,-30.4 5.4,6.4 6.5,-16.6 19.2,3.4 18.1,-1.6 4.9,3.4 13.9,1 10.4,-4.9 12.2,4.1 6.5,8 6.7,0.7 -0.1,6.2 12,7.2 14.2,0.2 11.4,-10.9 11.5,-2.6 0.5,4.8 5.2,3.2 4.5,-3.8 11.5,1.4 -0.3,-3.9 -13.1,-6.7 -21.9,1.4 1.9,-6.3 -4.1,1.5 0.3,-5.6 -11.2,-16.1 -24.8,-15.2 -3.4,3.4 -10.9,-2.3 -1.1,-11.3 12.6,-14.2 12.6,-1.5 15.5,-12 9.6,2.5 0.7,-23.5 8.8,-15.7 12.4,-11.5 6.5,2.8 15.8,-1.4 15.5,-8.1 5.8,-7.7 27.2,8.8 c 9,-4 35.1,-2.9 44.8,-2.4 0,0 21.8,-4.8 21.8,-4.8 l 17.7,2.5 9.4,9.7 8,-1.2 13.3,3.8 -9.1,-5.2 2.4,-2.3 -5.3,-10.7 1.2,-6 20.5,8 12,9.7 -11.8,-14.5 -7.1,-0.3 -11,-7.1 4.9,-6.7 14.5,-2 -2.9,-7.4 -14.4,9.5 -1.2,-6.3 -4.1,-0.5 8,-9.2 12,4.3 -14,-13.3 6,-3.2 -2.7,-3 10.9,-2.1 z"/><path class="rg" data-region="5" tabindex="0" role="button" aria-label="Ақмола облысы, 11 нысан" transform="matrix(0.26458333,0,0,0.26458333,-157.54357,63.35921)" d="m 3218.3,323.9 21.5,1.1 11.3,19.5 19.9,-7.3 25.4,-3.2 1,17.4 h 42.8 l 13.5,6 14.8,1.5 8.5,-4 28.2,8.2 -1.5,-37.8 29.7,-0.6 7.8,8 19,6.3 17.7,12.3 7.8,-6.3 -3.4,-4 4.1,-5.8 5.3,3.3 16.7,-14.9 -1.5,-5.4 -8.2,-2.7 -3,-12.3 19.4,0.3 5.2,-9.5 5.7,-2.7 14.7,1.6 9.6,-19.9 15.1,-5.2 2.3,-6.7 25.6,-8.3 -11.3,-10.6 7.4,1.2 -6.3,-17.9 20.5,-15.5 -7.8,-8.9 4.7,-1.2 0.5,-7.6 -2.3,-6.3 -9.3,-0.5 1.7,-12.9 -14.9,-1 -4.2,-7.1 -7.4,-2 -0.6,-6.1 -9.6,-11.3 4.1,-5.1 9.5,-1.7 0.3,-4.5 6.8,-4.2 3.5,3.3 4.1,-6.7 -6.5,0.3 -0.4,-9.2 19.7,0.5 3,-2.9 -6.9,-12 10.3,0.6 1.2,-4.5 13.1,0.8 0.6,5.4 18.8,-1.1 -0.4,-9.3 13.1,0.8 0.4,7.8 8.4,1.3 1.6,4.7 5.6,1.2 2.7,14.8 9.2,2.1 4.3,-8.2 -7.4,-1.3 -2.3,-8.5 5.6,-0.5 2.5,-9.1 7.4,1.3 3.2,-5.2 6.5,-0.3 5,-4.3 29,0.4 1.3,8.5 7.4,2.1 1.5,18.6 -3.2,5.9 4.5,1.9 3,-3.6 16.6,3.4 9.6,-3.2 1.2,10 -5.8,2.7 1.5,4.7 -5.6,0.3 0.5,5.4 -4,2.9 26.1,-0.5 6.7,-2.6 14.3,17 2,8.6 13,-1.4 -2.5,-13.2 12.1,-1.4 3.2,-15.1 56.4,-1.3 -0.8,16.1 21.6,3.2 1.4,3.2 11.8,0.1 11.9,-8.3 8.3,-0.9 4.5,-7.4 13.6,0.3 -0.8,6.9 27.7,24.5 -9.7,19.3 4.3,9.6 -8.5,3.2 0.1,6.1 8.2,13 39,4 31.6,-1.9 6.3,-13.3 25.8,-4.7 5.7,4.4 12.4,-5.1 14.4,-0.1 4.3,-5.1 4.5,-0.3 2.9,19 5.6,5.2 3.7,32.3 17.1,-6 25.6,10.7 18.1,-0.3 1.6,7.1 10,-0.3 9.6,15 51.7,3.2 v 0 l 0.4,3.2 7,0.8 3.1,112.7 2.8,4.9 -8.2,1.2 -23,16.3 -0.7,33.4 24.5,-9.9 6.8,13 15.7,1.2 13.1,6.3 -15.7,10.2 -13.6,-3.2 -29.8,16.1 -2,12.6 -14.4,14.1 v 0 l -22.9,-5.6 -8.7,11.1 -3.8,-9.5 -3.6,1.1 2.1,3.2 -10.9,2.6 -3.6,-4.9 -6.5,2.3 -2.2,8.8 5.8,2.2 8.2,15.2 -1.4,3.6 4.8,2.7 7.1,-12.7 24.3,7.3 -19.9,15.8 -35.5,9.6 4.7,9.6 -18.9,3.8 -5.4,7.7 -21.6,-7.6 -7.8,11.9 -5.3,1 2.5,6.3 -9,8.8 -19.3,1 -0.8,5.9 -4.9,-2.1 -6.8,5.3 3.8,4.1 -9.7,7.2 14.5,8.2 -11.1,4.8 -15.3,-8.2 -5.3,6.9 -9.9,2.7 3,16.6 -8.9,2.1 1.9,5.4 -16.7,-10.6 -28,2.4 -3.3,5.6 -8.3,-2.3 12.2,-14.4 -2.4,-8.4 4.1,-4.8 -5.3,-5.7 9.1,-10.3 -15.1,-11.1 -9.6,0.5 -1.8,-6.1 -9.1,2.9 -1.9,-5.4 -6.2,0.9 0.3,4.5 -20,7.1 -3.8,16.7 -9.6,-0.1 -4.3,7 -12,-1 -10.4,7.2 2.8,5.4 -17.7,10.4 -20.3,4.1 -1.7,36.8 -9.6,-14.1 -28.8,10.9 8.3,17.7 -4.3,7 -14.8,1.7 -30,14.5 -8.2,-3.6 0.5,-12.5 11.9,-14.5 -2.8,-5.4 -6.3,1.7 -4.1,-9.9 -41.6,10 -24.3,1.9 3.2,-14.4 -7.8,-0.5 -8.9,-14 -7.6,6.1 -2.5,-9.8 -18.1,8.2 4.7,12.9 -11,5.8 -9.9,-4.3 0.9,17 -9.2,-3.6 -17.2,7.6 -17.3,-9.3 -7.8,-0.5 -2.2,-4.5 -10.7,2.9 -4.6,-6.9 9.6,-8.9 5.6,-21.7 5.9,-7.7 -3,-15 6.5,-3.3 1.9,-39 -41.4,1 -4.1,6.4 -16.3,4.9 -29,18.1 -12.6,-8.2 -26.8,2.1 8.9,10 1,9.8 v 0 l -15.9,10.1 -58.2,6.3 -31.5,16.7 -19,-24.5 14.8,-7.4 -8.7,-18.1 -11.5,-3.5 -33.1,8 -35.6,-10.5 -10.6,-6.4 -16.6,3.6 -6.9,-23.2 -10.2,4 -4.4,-3.2 -6.5,2.7 0.3,-6.7 -4.7,3.5 -1.2,-14.2 -25,-12.2 -8.3,22.6 -26.6,2.5 -5.1,-9.1 8.8,-34.5 -28.4,-22.9 7.6,-5.6 -11.5,-12.4 19,-14.1 -6.3,-4.1 11.3,-27.1 -12.2,-20.8 -16.7,-0.8 -6.7,-19.1 23.2,1.9 35,-14.8 11.4,-48.3 16.4,-11.3 z"/><path class="rg" data-region="13" tabindex="0" role="button" aria-label="Қызылорда облысы, 12 нысан" transform="translate(2.8087697e-5,-4.0104838)" d="m 543.5,365 -21.6,4.2 -12.2,27.9 -14.9,-1 c -1.2,12.6 0.6,9.5 -12,10.4 l -14.3,11.4 -24.4,28 -8.2,3 -3.3,5.1 -1.5,6.4 -1.6,0.7 -1.3,3 3.3,-1.1 8.5,5.3 -0.2,0.5 c 22.1,13.2 21,12.6 61.6,38.1 l 2.4,-1.6 v 0 l -2.8,1.9 16.6,10.5 1.7,4.7 29.4,30.9 1.9,1.1 47.9,-8 40.1,3.1 c 2.5,-0.9 18.8,-8.2 21.3,-7.5 l 2,1.4 4.4,8.5 12.7,10.3 6.2,18.6 9.6,-4 0.3,25.5 3.1,0.7 14.4,-13.2 5,2.7 c 4.3,-4.2 13.6,-11.9 18.8,-14.8 6,-1.4 19.1,-7.4 24.7,-10.2 l 0.1,-1.4 -2.5,0.6 -1.4,-2.9 0.6,-2.3 -2.1,0.1 0.4,-1.9 -1.9,1 0.6,2.7 -1.5,0.8 -1.1,-4.1 3.6,-0.9 0.5,-5 3.4,-3 v -5.6 l 3.7,2.9 1.6,-0.6 0.4,-4.9 -1.9,-3.5 4.2,-2.7 1.5,1.1 2.7,-2.3 -10.3,-6.5 -4.4,-4.6 -0.1,-1.5 -4.4,-2.1 -2.2,0.6 -4,-3.5 c 1.9,-0.8 0.8,-31.3 1,-33.5 l -5.4,-2.1 -6.5,-4.9 3.6,-15 3,-4.6 -1.1,-3 -5.4,-3.7 -0.1,-7.9 -15.6,0.2 -46.1,-10.8 -6.5,-3.1 -6.4,-6.3 -7.4,-0.5 -17.9,-8.3 c -3.1,0.6 -20.9,-5.3 -22.9,-7.4 l -3.4,1.8 -10.5,-5 -4.7,0.3 -9.5,-6.5 -14.7,2.3 9.7,-6.5 -2.7,0.7 -1.5,-1.9 -10.2,-1.4 1.5,-3 -9.7,-10.6 -4.4,0.6 c -1.8,-3.1 -7.1,-10.1 -9.3,-12.9 z"/><path class="rg" data-region="10" tabindex="0" role="button" aria-label="Жамбыл облысы, 10 нысан" transform="matrix(0.26458333,0,0,0.26458333,-158.22659,65.64909)" d="m 4297.8,1446.2 -10.7,22.9 v 0 l -12.7,18.6 5.8,61 7.3,16.8 -40.3,-2.6 2.4,30.6 37.5,0.8 1.1,20.1 7.8,12.6 42.9,26.3 12.8,19.3 -6.1,19.7 c 1.5,5 25.8,23.8 29.8,27.4 l 29.8,2.8 15,10.6 8.3,1 7.6,9 13.9,8.3 0.6,20.2 -8.9,13.1 3.1,11.7 c 0.9,7.6 -32.5,29.8 -37,34.2 l 0.1,8.8 22.8,7 12.2,-1.9 -2,5.7 20.2,-2.1 4.9,7.2 -17.9,19.2 -1.5,13.9 5.2,2.7 -1.9,7.1 5.3,2 3.2,11.7 38.6,13.1 -3.6,6.6 -7.8,2.1 1.5,2.7 v 0 l 13.1,-1.3 7.5,4.2 7,-2.7 2.4,5.7 v 0 l -5.8,15.5 -7.4,6.5 c -8.7,-4.1 -29.5,-4.4 -39,-4 0,0 -14.3,-5.6 -14.3,-5.6 l -16.2,2.4 c -7,-4.2 -29.2,-18.8 -37.5,-18.7 l -1.8,-4.4 -10,-3.7 -13.1,1.9 -17.2,-20.8 -14.6,-6.1 -2.5,-4.2 -19.3,-3.4 -6.5,-5.4 -14.5,0.1 -1.5,8.5 -14.2,4.3 -13.1,-5.5 -8.5,15.3 -15,-1.8 -29.4,13.8 0.4,5.1 -8.2,13.5 0.5,20 -10.7,25.3 2,18.7 10,11.5 -3,4.7 c -4.5,-0.9 -21.5,-1.9 -24.3,-6.4 l -1.6,-9.1 c -12.9,-3.5 -38.4,-5.7 -51.7,-4.6 0,0 -12.9,-5.3 -12.9,-5.3 l -9.3,-11.4 -18.3,-6.8 -14.4,-0.5 -29,-12 -21.7,3.7 -34.3,-15.5 -31.6,10.9 -14.6,-7.1 -17,2 -3.2,3.2 -11.9,-0.5 -6.6,14 -7.1,3.4 -1.2,10 -16.6,1.7 -4.2,3.3 11.1,13.6 -4.5,4.7 -8.6,-5 c -2,-0.7 -13.7,23.8 -14.6,25 v 0 l -7.6,-9.8 -5.8,-0.3 v -9.3 l -10.9,2.5 -9.1,-14.1 -7.3,-1.2 -5.5,-8.9 -4.3,-1 -0.8,-5.2 -7.9,-2.6 -1.5,-5.4 -9.8,0.5 -14,-7.7 3.3,-7.7 -2.6,-2.9 1.4,-21.1 -4.5,-5.6 3.4,-3.1 -8.5,-4.7 4.8,-7.6 -3.4,-2.3 -4.9,3 -6.8,-5.8 2.4,-7.1 -3.3,-3.6 -4.7,1.6 -3.3,-4.3 -12,-1 -2.6,-9.6 -3,-0.2 -4.1,8.9 -14.2,-9.1 -9.3,1.2 1.5,-5.9 -10.2,2.7 -5.8,-15.8 3.7,-5.2 -14,-4.3 18,-22.8 16.4,-40.3 2.2,-18.7 9.3,-12.8 2.4,-13.9 5,-3 c -2.8,-6.7 -19.4,-131.1 -29.9,-130.4 -12.5,-53.1 -36.6,-129.8 -70.9,-173.2 v 0 c 189.8,2.2 479.1,-4.9 667.9,-3.8 z"/><path class="rg" data-region="18" tabindex="0" role="button" aria-label="Шығыс Қазақстан облысы, 11 нысан" transform="matrix(0.26458333,0,0,0.26458333,-156.63909,64.590753)" d="m 5025.9,505.7 70.5,118.5 -1.2,-16.2 3,3.2 12.1,-0.1 1,-12.7 c 4.1,-4 17.8,-4.7 23.1,-5.1 l 6.9,-6.6 5.1,-0.1 1.2,-18.2 -5.5,-7.9 0.6,-13.6 28.1,-0.1 1.1,-9.6 5,-6.8 28.7,8.4 0.7,3.4 17.5,7.4 6.2,-5.9 2.8,0.8 2.5,9.4 -8.4,17.8 -1.9,15.3 11.9,0.3 20.2,-6.4 16,0.1 5.8,13.5 -2.9,3.3 8.7,11.8 -3.8,12.4 c 0.7,1.7 39.7,-1.6 41.8,-1.5 l 1.5,-7.5 2.5,3.3 9.2,-4.5 16.6,2 20.4,10.7 7.4,-0.6 8.7,-5.8 35.6,3.5 21.6,-12.7 3.5,-18.5 c 3.5,-3 28,4.1 32,4.7 l 15.5,-12.9 2.3,-8.2 7.6,2.4 5.4,6.1 6,-3.8 19.5,1.7 3.7,-2.3 -1.7,5 21.8,4.4 17,9.8 13.7,2.1 20.1,18 3.5,12.8 34.9,35.2 -3.1,10.9 6.3,16.5 -3,9.8 11.9,13.5 11.5,0.5 8.9,-4.9 c 6.3,8.2 35.4,16.8 44.8,20 l 2.6,6.6 13.1,1 8.8,6 4.8,9.2 -6.1,1.3 -1,12.9 4.7,5 11.8,3 13.4,27 -0.8,13.1 10.6,9.1 18.9,4.5 4.3,-4.7 13.1,-2.1 16.4,8 10.5,-2.3 9.8,3.8 12.4,-1 3.2,2.1 -1.1,7.8 6,1.9 7.2,-4.6 9.6,-0.7 8.5,9.6 4.7,-3.4 -1.4,-5.6 6,-12 25,-9.6 24.2,-20.2 0.7,-8.2 25.2,0.1 -4.7,10.4 2.1,5.6 -11.3,6.3 -4,-1 -6.3,6.7 1.7,10.3 22.2,6.5 -2.3,3 5.2,3.6 -1.4,9.8 12.7,6.1 -0.9,10.9 5.4,8.1 7.8,1 4.9,7.1 20.2,1.5 12.2,7.6 4.2,17.8 -23.6,-8.8 -22,8.7 -12.9,-2.4 -5.7,11 -13.2,8.7 0.5,14.6 10.3,14.8 -7.9,5.8 1.5,13.6 -10.4,13 -6.9,2.4 -6,13.9 -20.6,8.3 -5.8,-2.7 -9.6,1.6 -13.8,11.1 -26.5,-2.3 -23.3,4.1 -14.5,10.1 -16.1,35.5 0.2,15.3 -9.3,24.4 c 1.7,11.4 14,60.3 8.3,70.9 l 13.8,24.3 -1.4,24.3 -16,6.8 -6.3,22 -40.9,1 -4.4,7.9 -16,12.4 -12.6,3.1 -1.8,7.1 -20.8,7.6 -14.8,-2.2 12.1,-11.5 -13.3,-16.1 -23.8,4.5 -10.4,-5.4 c -13.4,0 -39.6,3.2 -52.2,7.6 -3.4,-6.3 -54.5,-13.8 -61,-15.6 0,0 -16.4,-12.4 -16.4,-12.4 l -6.5,1.6 -7.7,-8.7 -14.2,-0.7 -9.3,-7.6 -19.1,1.9 -4.9,26.2 -7.7,7.4 -6.1,22.7 -11.1,21.3 -11.3,43.8 -22.9,42.5 -6.3,41.2 c -6.6,13.2 -30.9,57.1 -30.7,72 l -13.8,4.3 -4.9,-3.7 2.5,-34.6 c -27.1,-23.7 -21.7,-22 -32,-54.8 v 0 l -44.3,-44.9 4.7,-5.4 -7.7,-0.8 6.7,-4.4 v 0 l 2.5,-5.8 -7.5,7 -9.3,-3.2 -4.5,-0.8 5,-6.8 -3.9,-0.1 v 0 l -6,7.4 -8.2,-12.9 -13.8,4.4 v 0 l -7.5,-9.8 -41.5,-0.9 -84.5,-36.1 0.5,-11.9 -28.5,-10.2 -63.6,19.2 -41.9,-50.6 -59.4,5.8 -6.5,-14.4 -16.8,-1.3 -22.6,-15.7 v 0 l -22.5,-16.3 -21.5,23.6 v 0 l -17,-15.5 -19.6,18.9 -34.5,-6.6 -3.6,5.8 -13.3,5.2 -15.7,-6.6 -8.3,4.4 -6.5,15.3 c -15,-4.4 -32.4,-9.4 -39.8,-24.8 l -12,-5.3 10.5,-3.4 5.7,-12 -0.7,-12.9 12.6,-1.7 12.2,4.6 c -2.1,-7.2 -7.5,-38.1 -14.3,-42.5 l 14.6,-39.3 6.6,0.3 1.2,-14.1 9.1,-0.1 -8,-9.8 24.9,-7.8 -9.5,-6.4 -13.5,0.8 -17.2,-13.3 3.5,-8.8 11.8,-0.4 2.9,-6 -27.2,-1.2 -1.9,-7.5 -11.5,-4.5 -4.9,-8.7 10.6,-2.7 -1.5,-8.9 6.9,-5.5 17,2.5 24.6,-21.5 5.5,-25.9 -5.5,-13.8 -54.7,7.6 -9.4,-15.9 1.9,-17.9 11.1,-4.9 2.7,3.3 12.8,-4.6 -23.7,-16.6 -0.3,-10.9 -20.1,-14 -11.3,-3.2 0.3,-5.8 -10.7,-10.4 2,-9.9 66.3,-23.6 14.6,-24.8 -3.5,-7.9 3.1,-10.5 -4.1,-5.1 3.7,-13.3 12.2,-0.3 24.8,-10.7 10.5,-12.3 19.7,-13.7 3,-9.8 v 0 l 8.9,-4.4 7.9,11.6 c 15,5.2 63.8,23.4 79,24.6 l 18.4,-7.1 c 5.2,-7.5 23.9,-38.9 32.1,-42.9 l -3.8,-22.7 -12.6,-3 4.8,-39 -36.6,-19.1 -17,-14.9 -10.2,-2.5 -3.6,-17.7 -16,-19.2 11.4,-9.2 3.1,2.1 14.4,-6.4 1.7,-6.4 8.2,-3 3,5.8 c 11.3,-1.1 34.5,-13.2 44.3,-18.8 l 6.9,2 0.8,-15.5 -6.9,1 -0.6,-10.6 26.7,-3.2 3.7,3.6 17.2,-13.9 -3.6,-9.7 20.5,-4.3 3.6,-17.3 10,-1 z"/><path class="rg rg--city" data-region="19" tabindex="0" role="button" aria-label="Шымкент қаласы, 1 нысан" transform="translate(-6.2158711,-13.95138) translate(21.756633,1.2432363)" d="m 772.8,622.6 c 0,0 0,-4 2.6,-1.9 2.6,2.1 2.6,2.4 2.6,2.4 l 9.9,-1.6 -0.4,-2.1 -1.5,-2.5 3.6,-2.1 -1.6,-2.8 12,-6.5 -15.9,-5.6 h -3.4 l -0.3,2.3 c 0,0 -5.2,-4.6 -7.5,-5.4 -0.7,-0.2 -3,0 -3,0 l 3.5,3.7 -6.6,-1.9 c 0,0 -5.3,-0.7 -7,-1.8 -2.3,-1.6 -9.2,-1.7 -9.2,-1.7 0,0 -2,0.2 -2.1,3.9 -0.2,5.6 1,5.6 1,5.6 l 11,5.6 -0.3,10.4 c 0,0 9.1,-0.2 10.2,1.4 1.3,1.5 2.4,0.6 2.4,0.6 z"/><path class="rg rg--city" data-region="3" tabindex="0" role="button" aria-label="Астана қаласы, 9 нысан" transform="translate(-2,6) translate(-0.41005286,2.4143474)" d="m 834.7,231.9 c -3.8,0.6 -15.2,-1.1 -15.2,-1.1 0,0 -3.7,-5.7 -5.9,-10.7 -0.8,-1.9 3,-8.2 3,-8.2 0,0 2.8,-1.6 1.4,-2.1 -5.9,-2.1 -5.5,-3.1 -5.5,-3.1 0,0 2.1,-2 3.2,-2.5 1.1,-0.5 5.6,-0.5 5.6,-0.5 l 2.4,-4.4 h 7.1 l 4.1,-0.8 4.1,-2.9 c 0.2,-0.1 0.7,-0.2 0.4,0.4 l -2,3.7 1.8,1.3 3.9,1.3 c 0,0 4.4,-4.5 5.8,-3.5 4.3,2.9 -3,7.2 -3,7.2 l 7.2,8.8 c 0,0 6.4,3.6 8.5,6 1.1,1.2 -12.4,1.4 -12.4,1.4 l -6.4,-1 c 0,0 -3.5,0.6 -4.3,1 -1.4,0.7 -3.8,3.8 -3.8,3.8 l 3.8,3.1 c -0.1,-0.2 -2.3,2.6 -3.8,2.8 z"/><path class="rg rg--city" data-region="4" tabindex="0" role="button" aria-label="Алматы қаласы, 6 нысан" transform="translate(0,-4)" d="m 1081.1,569.2 c 0,0 -7,-2.3 -7.5,-6 -0.1,-0.7 1.5,-2.8 0.7,-4 -2.3,-3.1 -6.3,-6.1 -6.3,-6.1 0,0 -1.7,-4.9 0.2,-8.3 2.8,-4.9 8.2,-5.1 8.2,-5.1 l 8.8,1.1 c 0,0 0.5,-5 1,-5 2,0 11,2.1 13.5,2.9 2.7,0.8 6.5,1.9 8,3.4 1.9,1.8 5.1,10 5.1,10 0,0 -4.7,-1.4 -7.6,-0.9 -1.2,0.2 -4.7,0.9 -5.1,1.8 -0.3,0.7 3,7.8 3.1,10.7 0.1,2.3 -2.8,9 -2.8,9 0,0 -5.7,-3.7 -9.6,-4 -2.6,-0.1 -9.7,0.5 -9.7,0.5 z"/></svg>
